<?xml version="1.0" standalone="no"?><!DOCTYPE svg PUBLIC "-//W3C//DTD SVG 1.1//EN" "http://www.w3.org/Graphics/SVG/1.1/DTD/svg11.dtd"><svg t="1578037782656" class="icon" viewBox="0 0 1024 1024" version="1.1" xmlns="http://www.w3.org/2000/svg" p-id="3448" xmlns:xlink="http://www.w3.org/1999/xlink" width="200" height="200"><defs><style type="text/css"></style></defs><path d="M884.317 913.205v-0.628c0-1.196-0.466-2.884-1.004-4.838-0.168-0.609-0.337-1.219-0.498-1.83l-0.188-0.719-0.097-0.737c-8.523-64.906-33.943-126.708-73.511-178.723-39.07-51.359-90.867-91.891-149.796-117.214l-19.726-8.477 17.724-12.116c70.815-48.404 113.093-128.444 113.093-214.102 0-69.257-26.965-134.36-75.927-183.316-48.965-48.96-114.085-75.922-183.364-75.922-69.258 0-134.369 26.963-183.337 75.922-48.97 48.96-75.94 114.064-75.94 183.316 0 85.649 42.306 165.717 113.17 214.183l17.71 12.115-19.714 8.475c-57.898 24.894-108.995 64.602-147.763 114.833-39.197 50.786-64.897 111.257-74.322 174.875l-0.248 1.676-0.71 1.54c-1.644 3.56-2.519 7.09-2.606 10.5l0.37 3.485v0.626c0 14.802 12.045 26.844 26.85 26.844 14.654 0 26.604-11.8 26.846-26.396l2.434-12.71c23.649-152.985 151.232-266.355 307.197-271.184l0.322-0.01 0.323 0.008c1.675 0.038 3.241 0.14 4.755 0.239 1.65 0.106 3.21 0.208 4.663 0.208 1.454 0 3.029-0.102 4.695-0.209 1.52-0.098 3.092-0.2 4.763-0.238l0.323-0.009 0.322 0.01c155.968 4.829 283.559 118.199 307.213 271.185l2.654 12.262c0 14.802 12.045 26.844 26.849 26.844 14.616 0 26.541-11.735 26.847-26.274l-0.372-3.494zM510.985 579.358c-113.292 0-205.463-92.137-205.463-205.39 0-113.29 92.17-205.458 205.463-205.458 113.26 0 205.403 92.168 205.403 205.458 0 113.253-92.144 205.39-205.403 205.39z" p-id="3449" fill="#e8989a"></path></svg>