<?xml version="1.0" standalone="no"?><!DOCTYPE svg PUBLIC "-//W3C//DTD SVG 1.1//EN" "http://www.w3.org/Graphics/SVG/1.1/DTD/svg11.dtd"><svg class="icon" width="200px" height="200.00px" viewBox="0 0 1024 1024" version="1.1" xmlns="http://www.w3.org/2000/svg"><path fill="#e8989a" d="M823.3 83H200.7c-21.2 0-37.8 20.5-37.8 46.7v764.7c0 26.2 16.6 46.7 37.8 46.7h622.5c21.2 0 37.8-20.5 37.8-46.7V129.7c0-26.2-16.6-46.7-37.7-46.7z m-5.1 811.3c0 1.6-0.2 2.9-0.4 3.9H206.2c-0.3-1-0.4-2.3-0.4-3.9V129.7c0-1.6 0.2-2.9 0.4-3.9h611.6c0.3 1 0.4 2.3 0.4 3.9v764.6z"  /><path fill="#e8989a" d="M287.4 256.3h451.1v42.8H287.4zM533.8 454.2h204.7V497H533.8zM533.8 652.1h204.7v42.8H533.8zM420.4 459.6h-94.5c-20.6 0-37.4 16.8-37.4 37.4v205.1c0 20.6 16.8 37.4 37.4 37.4h94.5c20.6 0 37.4-16.8 37.4-37.4V497c0.1-20.6-16.7-37.4-37.4-37.4z m5.4 242.5c0 2.9-2.4 5.3-5.3 5.3H326c-2.9 0-5.3-2.4-5.3-5.3V497c0-2.9 2.4-5.3 5.3-5.3h94.5c2.9 0 5.3 2.4 5.3 5.3v205.1z"  /></svg>