<?xml version="1.0" standalone="no"?><!DOCTYPE svg PUBLIC "-//W3C//DTD SVG 1.1//EN" "http://www.w3.org/Graphics/SVG/1.1/DTD/svg11.dtd"><svg class="icon" width="200px" height="200.00px" viewBox="0 0 1024 1024" version="1.1" xmlns="http://www.w3.org/2000/svg"><path fill="#707070" d="M953.159582 479.577566 553.286312 79.706343c-11.040451-11.040451-25.719778-17.121959-41.335431-17.121959-15.613606 0-30.293957 6.079462-41.335431 17.121959L70.745251 479.577566c-7.598049 7.598049-7.598049 19.916609 0 27.513634 7.598049 7.597025 19.916609 7.599072 27.513634 0l43.552935-43.552935 0 474.622718c0 10.744715 8.710382 19.455097 19.455097 19.455097l701.368952 0c10.745738 0 19.455097-8.710382 19.455097-19.455097l0-474.621694 43.551912 43.551912c3.797489 3.798513 8.776897 5.698792 13.757329 5.698792 4.979408 0 9.958816-1.90028 13.758352-5.698792C960.755584 499.493152 960.755584 487.175615 953.159582 479.577566zM375.517559 918.494061 375.517559 596.506672l272.376481 0 0 321.987389L375.517559 918.494061zM841.107553 908.978337c0 5.372358-4.355191 9.727549-9.727549 9.727549L686.805258 918.705885 686.805258 577.050552c0-10.744715-8.710382-19.455097-19.455097-19.455097L356.062462 557.595454c-10.745738 0-19.455097 8.710382-19.455097 19.455097l0 341.655334L191.294814 918.705885c-5.372358 0-9.727549-4.355191-9.727549-9.727549L181.567265 423.783843 498.131131 107.219977c3.692089-3.691065 8.599865-5.724375 13.820774-5.724375s10.129708 2.033309 13.81975 5.724375l315.335898 315.334875L841.107553 908.978337 841.107553 908.978337z" /></svg>