<?xml version="1.0" standalone="no"?><!DOCTYPE svg PUBLIC "-//W3C//DTD SVG 1.1//EN" "http://www.w3.org/Graphics/SVG/1.1/DTD/svg11.dtd"><svg t="1578281408832" class="icon" viewBox="0 0 1024 1024" version="1.1" xmlns="http://www.w3.org/2000/svg" p-id="2976" xmlns:xlink="http://www.w3.org/1999/xlink" width="200" height="200"><defs><style type="text/css"></style></defs><path d="M737.47924 211.528625c115.132009 143.235097 192.390321 331.092662 191.383041 495.178438L543.578 484.098367z" fill="#6D66FF" p-id="2977"></path><path d="M737.47924 211.528625l54.795986-31.830022C907.407235 323.034428 984.564819 510.891993 984.06118 674.877041l-54.695259 31.93075c0.50364-164.085776-76.754672-351.943341-191.886681-495.279166z" fill="#2622DD" p-id="2978"></path><path d="M737.47924 211.528625l54.795986-31.830022 5.540036 6.950226-54.795987 31.93075-5.540035-7.050954" fill="#2622DD" p-id="2979"></path><path d="M743.019275 218.579579l54.795987-31.830022q8.360417 10.072792 16.317922 21.455047l-54.695258 31.830021c-5.33858-7.25241-10.878615-14.404092-16.418651-21.455046M759.437926 240.034625l54.695258-31.830021c7.75605 10.072792 15.310643 21.152862 22.663782 31.930749L782.000979 271.965375c-7.25241-10.777887-14.807004-21.455046-22.563053-31.93075" fill="#2622DD" p-id="2980"></path><path d="M782.000979 271.965375l54.795987-31.830022c11.684438 17.42593 22.865237 35.154043 33.441668 53.385796L815.543375 325.250443c-10.072792-18.131025-21.75723-35.959866-33.542396-53.285068M815.543375 325.250443l54.695259-31.729294c6.043675 10.072792 11.986622 20.850679 17.627385 31.527838l-54.795986 31.830021A968.498918 968.498918 0 0 0 815.543375 325.250443" fill="#2622DD" p-id="2981"></path><path d="M833.070033 356.879008l54.795986-31.830021c3.928389 7.453866 7.856777 15.00846 11.583711 22.563053l-54.695259 31.830022c-3.827661-7.554594-7.655322-15.109187-11.684438-22.563054M844.754471 379.442062l54.695259-31.830022c3.324021 6.547315 6.446587 13.195357 10.072791 20.145583l-54.695258 31.830022c-3.122565-6.648042-6.345859-13.296085-9.569152-20.145583" fill="#2622DD" p-id="2982"></path><path d="M854.323623 399.285461l54.695259-31.830021q4.3313 9.266968 8.461145 18.433208l-54.795987 31.830022c-2.719654-6.144403-5.540035-12.288806-8.360417-18.433209" fill="#2622DD" p-id="2983"></path><path d="M862.68404 417.71867l54.795987-31.830022q4.129845 9.16624 7.856777 18.433209l-54.695258 31.830022c-2.618926-6.144403-5.237852-12.288806-7.957506-18.433209M870.641546 436.151879l54.695258-31.830022c2.518198 6.144403 5.036396 12.288806 7.453866 18.533937l-54.795987 31.729294c-2.316742-6.144403-4.83494-12.288806-7.353137-18.433209" fill="#2622DD" p-id="2984"></path><path d="M877.994683 454.585088L932.79067 423.05725c2.41747 6.245131 4.83494 12.59099 7.151682 18.936848L885.146366 473.421208c-2.216014-6.345859-4.633484-12.691717-7.151683-19.037576" fill="#2622DD" p-id="2985"></path><path d="M885.146366 473.421208l54.795986-31.830022c2.316742 6.547315 4.633484 13.094629 6.849498 20.145584L891.995864 493.566791c-2.216014-6.547315-4.432028-13.094629-6.849498-19.641943" fill="#2622DD" p-id="2986"></path><path d="M891.995864 493.566791L946.489667 461.434586c2.216014 6.648042 4.3313 13.296085 6.345858 20.145583L898.442451 513.712375c-2.014558-6.648042-4.230572-13.296085-6.446587-20.145584" fill="#2622DD" p-id="2987"></path><path d="M898.442451 513.712375l54.695258-31.729294c2.115286 6.74877 4.129845 13.497541 5.942947 20.145583L904.385398 533.857958c-1.91383-6.74877-3.827661-13.497541-5.942947-20.145583" fill="#2622DD" p-id="2988"></path><path d="M904.385398 533.857958l54.695258-31.830022q2.820382 10.072792 5.439308 20.145584L909.723977 554.003541c-1.611647-6.849498-3.424749-13.698997-5.338579-20.145583" fill="#2622DD" p-id="2989"></path><path d="M909.723977 554.003541l54.795987-31.830021c1.611647 6.74877 3.223293 13.497541 4.734212 20.145583L914.458189 574.149125c-1.410191-6.74877-3.021837-13.497541-4.734212-20.145584M914.458189 574.149125l54.795987-31.830022c1.410191 6.648042 2.820382 13.296085 4.029117 20.145583L918.487306 594.294708c-1.208735-6.648042-2.518198-13.296085-4.029117-20.145583" fill="#2622DD" p-id="2990"></path><path d="M918.487306 594.294708l54.795987-31.830022c1.208735 6.547315 2.316742 13.094629 3.424749 19.641944l-54.795987 31.729294c-1.007279-6.446587-2.115286-12.993901-3.424749-19.541216" fill="#2622DD" p-id="2991"></path><path d="M921.912055 613.835924L976.708042 582.10663c1.007279 6.446587 1.91383 12.792445 2.719653 19.239032l-54.795986 31.830022q-1.208735-10.072792-2.719654-19.33976" fill="#2622DD" p-id="2992"></path><path d="M924.631709 633.175684l54.795986-31.830022c0.805823 6.345859 1.510919 12.59099 2.115287 18.936848L926.344083 652.011804c-0.604367-6.245131-1.309463-12.490262-2.115286-18.83612" fill="#2622DD" p-id="2993"></path><path d="M926.344083 652.011804l54.795987-31.729294c0.604367 6.245131 1.108007 12.490262 1.410191 18.634665l-54.695259 31.830022q-0.604367-9.16624-1.510919-18.735393M928.257914 670.747197l54.695259-31.830022c0 6.245131 0.705095 12.490262 0.906551 18.634664l-54.695259 31.830022c0-6.144403 0-12.389534-0.906551-18.634664M929.164465 689.381861l54.695259-31.830022v17.42593l-54.493803 31.830022v-17.42593" fill="#2622DD" p-id="2994"></path><path d="M425.726338 528.015739l54.695259-31.830022 191.785953 495.07771-54.795987 31.830022L425.726338 528.015739z" fill="#FFE088" p-id="2995"></path><path d="M152.4515 57.817824l54.795987-31.830022c70.509542-40.291167 167.208342-34.952587 274.483573 26.894354l-54.795987 31.830022C319.76057 22.865237 222.55813 17.123746 152.4515 57.817824z" fill="#FFB845" p-id="2996"></path><path d="M152.4515 57.817824l54.795987-31.830022a179.396419 179.396419 0 0 1 31.225654-14.404092l-54.795987 31.830022a182.921897 182.921897 0 0 0-31.225654 14.404092" fill="#FFB845" p-id="2997"></path><path d="M183.677154 43.413732l54.795987-31.830022a211.528625 211.528625 0 0 1 26.894354-7.453865L211.175876 35.959866a197.426717 197.426717 0 0 0-26.995082 7.453866" fill="#FFB845" p-id="2998"></path><path d="M211.175876 35.959866L265.367495 4.129845c7.25241-1.410191 14.706276-2.518198 22.260869-3.223294l-54.795986 31.830022a221.601416 221.601416 0 0 0-22.160142 3.223293" fill="#FFB845" p-id="2999"></path><path d="M232.832378 32.736573L287.628364 0.906551q10.072792-0.906551 20.145584-0.906551l-54.896715 31.830022c-6.849498 0-13.497541 0-20.145583 0.906551" fill="#FFB845" p-id="3000"></path><path d="M252.877233 31.830022L307.572492 0q8.864057 0 18.131025 0.604367l-54.695259 31.830022q-9.266968-0.604367-18.131025-0.604367" fill="#FFB845" p-id="3001"></path><path d="M271.008258 32.434389L325.703517 0.604367c5.640763 0 11.382255 1.007279 17.224474 1.712375l-54.795987 31.830022c-5.741491-0.805823-11.482982-1.309463-17.123746-1.712375" fill="#FFB845" p-id="3002"></path><path d="M288.132004 34.146764L342.927991 2.316742c5.540035 0.805823 11.180799 1.712375 16.821562 2.820382l-54.695259 31.830021c-5.741491-1.108007-11.382255-2.014558-16.92229-2.820381" fill="#FFB845" p-id="3003"></path><path d="M305.054294 36.967145L359.749553 5.137124c5.237852 1.007279 10.072792 2.216014 15.814283 3.525477L320.868577 40.291167c-5.33858-1.309463-10.576431-2.518198-15.814283-3.525477" fill="#FFB845" p-id="3004"></path><path d="M320.868577 40.291167L375.563836 8.662601c5.33858 1.309463 10.072792 2.719654 15.91501 4.432028l-54.695258 31.729294c-5.33858-1.611647-10.677159-3.021837-15.915011-4.331301" fill="#FFB845" p-id="3005"></path><path d="M336.783588 44.823923L391.478846 13.094629c5.137124 1.510919 10.072792 3.223293 15.5121 5.036396L352.194959 50.363958c-5.137124-1.91383-10.072792-3.525477-15.411371-5.137123" fill="#FFB845" p-id="3006"></path><path d="M352.194959 50.363958l54.795987-32.232933c5.137124 1.813102 10.072792 3.726933 15.512099 5.842219l-54.695259 31.830022c-5.237852-2.115286-10.072792-4.029117-15.612827-5.842219" fill="#FFB845" p-id="3007"></path><path d="M367.807786 55.803266L422.7045 23.973244c5.137124 2.014558 10.072792 4.230572 15.5121 6.547315l-54.997443 31.830021c-5.137124-2.316742-10.072792-4.532756-15.411371-6.547314" fill="#FFB845" p-id="3008"></path><path d="M383.219157 62.35058L438.015144 30.218375c5.137124 2.316742 10.072792 4.734212 15.612827 7.353138l-54.795987 32.132205c-5.237852-2.618926-10.072792-5.036396-15.612827-7.353138M398.831984 69.703718l54.795987-31.830021 15.814283 8.158961-54.795987 31.830022c-5.237852-2.820382-10.576431-5.540035-15.814283-8.158962" fill="#FFB845" p-id="3009"></path><path d="M414.646267 77.86268l54.795987-31.830022 12.288806 6.849498-54.795987 31.830022-12.288806-6.849498" fill="#FFB845" p-id="3010"></path><path d="M426.935073 84.712178a710.433996 710.433996 0 0 1 192.692504 171.237458L425.726338 528.015739l191.383042 495.07771c-56.810545 4.935668-122.686602-11.281527-192.994689-51.874877C211.175876 848.229786 39.233322 550.075152 39.938417 305.306315S213.895529-38.276608 426.935073 84.712178z" fill="#FFDF5A" p-id="3011"></path><path d="M426.935073 84.712178l54.795987-31.830022A708.822349 708.822349 0 0 1 674.524292 223.716703l-54.695259 31.729293A710.433996 710.433996 0 0 0 426.935073 84.712178z" fill="#FFB845" p-id="3012"></path><path d="M426.935073 84.712178l54.795987-31.830022 3.726933 2.216014-54.795987 31.830022-3.726933-2.216014" fill="#FFB845" p-id="3013"></path><path d="M430.662006 86.928192l54.795987-31.830022c5.33858 3.223293 10.777887 6.446587 16.116466 10.072792l-54.795986 31.628566c-5.33858-3.424749-10.677159-6.74877-16.116467-10.072792" fill="#FFB845" p-id="3014"></path><path d="M446.778473 96.799528l54.795986-31.830022c5.439307 3.525477 10.878615 7.050954 16.317923 10.777887L462.995667 107.577415c-5.439307-3.726933-10.878615-7.353138-16.41865-10.777887" fill="#FFB845" p-id="3015"></path><path d="M462.995667 107.577415l54.695259-31.830022c5.640763 3.827661 11.180799 7.75605 16.620106 11.885894l-54.695259 31.729294L462.995667 107.577415M479.817229 119.362581L534.512488 87.633287c5.741491 4.129845 11.382255 8.461145 16.92229 12.893174l-54.695259 31.830021-16.92229-12.993901M496.739519 132.356482L551.434778 100.727917c5.842219 4.532756 11.482982 9.16624 17.224474 14.00118l-54.795987 31.830022c-5.640763-4.83494-11.382255-9.468424-17.123746-14.001181" fill="#FFB845" p-id="3016"></path><path d="M513.863265 146.357663l54.795987-31.830022c5.741491 4.83494 11.482982 10.072792 17.123745 15.00846L531.087739 161.164667c-5.640763-5.137124-11.382255-10.072792-17.224474-15.00846" fill="#FFB845" p-id="3017"></path><path d="M531.087739 161.164667l54.695258-31.830022c5.741491 5.137124 11.382255 10.072792 17.023018 15.713555l-54.795986 31.830022q-8.259689-7.957505-16.92229-15.713555" fill="#FFB845" p-id="3018"></path><path d="M548.010029 177.079677l54.795986-31.830021c5.540035 5.842219 11.281527 10.777887 16.418651 15.915011l-54.795987 31.830021c-5.439307-5.439307-10.878615-10.878615-16.41865-16.217194M564.428679 193.296872L619.224666 161.164667c5.237852 5.439307 10.072792 10.878615 15.713555 16.519378l-54.795987 31.830021c-5.137124-5.640763-10.072792-11.080071-15.713555-16.519378M580.142234 209.81625l54.795987-31.830021c5.036396 5.439307 10.072792 11.080071 15.008459 16.720834l-54.695258 31.830021c-4.935668-5.741491-10.072792-11.281527-15.109188-16.720834" fill="#FFB845" p-id="3019"></path><path d="M595.251422 226.537084l54.695258-31.830021q7.554594 8.461145 14.807004 17.224473l-54.795987 31.830022c-4.83494-5.842219-10.072792-11.58371-14.706275-17.224474" fill="#FFB845" p-id="3020"></path><path d="M609.957697 243.761558L664.4515 211.528625c3.223293 3.928389 6.446587 7.75605 9.569152 11.785166l-54.695258 31.729294-10.072792-11.684439" fill="#FFB845" p-id="3021"></path><path d="M619.627577 255.445996l54.695259-31.729293-193.901239 272.469014-54.695259 31.830022 193.901239-272.569743z" fill="#FF7517" p-id="3022"></path><path d="M427.53944 526.303364l385.787921 222.709424c0 164.085776-78.567775 262.396223-194.102695 272.469014z" fill="#76C8FF" p-id="3023"></path><path d="M427.53944 526.303364l54.695259-31.830021 385.787921 222.709423-54.695259 31.830022-385.787921-222.709424z" fill="#2789FF" p-id="3024"></path><path d="M755.106625 964.469801l-54.695258 31.830022c69.200079-40.291167 112.110171-125.70844 112.513082-247.287035l54.695259-31.729294c0.100728 121.477867-42.910092 206.995869-112.513083 247.186307z" fill="#005CE2" p-id="3025"></path><path d="M813.327361 749.012788l54.695259-31.729294v1.007279l-54.795987 31.830022v-1.108007M813.226633 750.120795l54.795987-31.830022v18.533937l-54.795987 31.830021v-18.533936" fill="#005CE2" p-id="3026"></path><path d="M812.823721 768.654731l54.795987-31.830021c0 6.245131-0.705095 12.288806-1.208735 18.332481l-54.695259 31.830021c0-6.043675 0.906551-12.08735 1.108007-18.332481M811.715714 786.987212L866.410973 755.459374c0 6.245131-1.108007 12.389534-1.813102 18.332481L809.801884 805.823333c0.805823-5.942947 1.410191-12.08735 1.91383-18.332481M809.801884 805.823333l54.795987-31.830022c-0.805823 6.345859-1.712375 12.490262-2.820382 18.533937l-54.695259 31.729293q1.510919-8.964785 2.719654-18.433208" fill="#005CE2" p-id="3027"></path><path d="M807.08223 823.752902l54.695259-31.729294c-1.108007 6.345859-2.316742 12.59099-3.726933 18.735393l-54.795987 31.830021c1.410191-6.144403 2.719654-12.389534 3.827661-18.83612M803.254569 842.589022l54.795987-31.830021c-1.510919 6.648042-3.223293 13.094629-5.036396 19.440487l-54.795986 31.830022c1.91383-6.345859 3.525477-12.792445 5.036395-19.440488" fill="#005CE2" p-id="3028"></path><path d="M798.218174 862.02951l54.795986-31.830022c-2.115286 7.050954-4.3313 13.900452-6.74877 20.145584l-54.795987 31.830021c2.41747-6.648042 4.734212-13.497541 6.748771-20.145583M791.469403 882.578005l54.795987-31.830022c-2.92111 7.75605-6.043675 15.209915-9.468424 22.361598l-54.795987 31.830022c3.424749-7.151682 6.547315-14.605548 9.468424-22.361598" fill="#005CE2" p-id="3029"></path><path d="M782.000979 904.939603l54.795987-31.830022a242.552823 242.552823 0 0 1-14.202637 25.786347l-54.795986 31.830021a252.927799 252.927799 0 0 0 14.202636-25.786346" fill="#005CE2" p-id="3030"></path><path d="M767.798343 930.725949l54.795986-31.830021a197.527444 197.527444 0 0 1-67.487704 65.573873l-54.695258 31.830022a196.318709 196.318709 0 0 0 66.984064-65.573874" fill="#005CE2" p-id="3031"></path></svg>