<?xml version="1.0" standalone="no"?><!DOCTYPE svg PUBLIC "-//W3C//DTD SVG 1.1//EN" "http://www.w3.org/Graphics/SVG/1.1/DTD/svg11.dtd"><svg t="1578281438763" class="icon" viewBox="0 0 1218 1024" version="1.1" xmlns="http://www.w3.org/2000/svg" p-id="3168" xmlns:xlink="http://www.w3.org/1999/xlink" width="237.890625" height="200"><defs><style type="text/css"></style></defs><path d="M579.867814 70.262721l76.330795-44.768795a19.810192 19.810192 0 0 1 20.145958 2.014596l-76.330795 44.768794a20.034036 20.034036 0 0 0-20.145958-2.014595z" fill="#FFB845" p-id="3169"></path><path d="M579.867814 70.262721l76.330795-44.768795a8.058383 8.058383 0 0 1 2.23844-1.007298L581.994332 69.143501l-2.350362 1.11922M581.994332 69.143501l76.218873-44.209185 2.126518-0.55961-76.218873 44.768795h-2.014596" fill="#FFB845" p-id="3170"></path><path d="M584.232772 68.583891L660.339723 24.374706h1.566907l-76.218873 44.768795h-1.566907" fill="#FFB845" p-id="3171"></path><path d="M585.799679 68.360047l76.218873-44.209185h1.454986l-76.218873 44.768795h-1.454986" fill="#FFB845" p-id="3172"></path><path d="M587.254665 68.360047l76.218873-44.768795h1.343064l-76.218873 44.768795h-1.343064M588.597729 68.360047l76.218873-44.768795h1.343064l-76.330795 44.768795h-1.231142M589.828871 68.471969l76.330795-44.209185h1.231142l-76.218873 44.768795h-1.343064" fill="#FFB845" p-id="3173"></path><path d="M591.171935 68.695813l76.218873-44.768795h1.11922l-76.218873 44.768795h-1.11922M592.291155 68.919657l76.218873-44.209185a4.253036 4.253036 0 0 1 1.119219 0L593.18653 69.255423h-1.119219M593.18653 69.255423l76.218874-44.209185h1.231141l-76.330795 44.768795H593.18653M594.529594 69.703111l76.330795-44.768795h1.11922l-76.218873 44.768795h-1.231142M595.760736 70.038877L671.531921 25.829692h1.11922l-76.218873 44.768795h-1.11922M596.879956 70.598487l76.218873-44.768795 1.11922 0.55961-76.218873 44.768795h-1.11922" fill="#FFB845" p-id="3174"></path><path d="M597.999176 71.158097l76.218873-44.768795h1.231142l-76.330795 44.768795-1.11922-0.55961M599.118396 71.717707l76.330795-44.768795 0.895376 0.55961-76.330795 44.768794h-0.895376" fill="#FFB845" p-id="3175"></path><path d="M1059.56545 774.028174l76.218873-44.321107 28.316263 108.67625-76.218874 44.321106-28.316262-108.676249z" fill="#FF7517" p-id="3176"></path><path d="M1208.757458 762.276366l-76.218873 44.768794a19.922114 19.922114 0 0 0 8.170305-18.131362l76.330795-44.768794a20.145958 20.145958 0 0 1-8.282227 18.131362z" fill="#FF7517" p-id="3177"></path><path d="M1140.932734 788.46611l76.218873-44.321106-76.218873 44.321106M1140.932734 788.46611l76.330795-44.768794v1.454986l-76.218873 44.768794v-1.454986" fill="#FF7517" p-id="3178"></path><path d="M1140.932734 789.921096l76.218873-44.768794v1.343063l-76.330795 44.768795a4.141114 4.141114 0 0 0 0-1.231142" fill="#FF7517" p-id="3179"></path><path d="M1140.820812 791.152238l76.330795-44.768795v1.343064l-76.218873 44.768795a5.931865 5.931865 0 0 0 0-1.454986" fill="#FF7517" p-id="3180"></path><path d="M1140.70889 792.607224l76.218873-44.768795a5.596099 5.596099 0 0 1 0 1.343064l-76.218873 44.768795a5.596099 5.596099 0 0 0 0-1.343064" fill="#FF7517" p-id="3181"></path><path d="M1140.485046 793.950288l76.218873-44.768795a5.596099 5.596099 0 0 1 0 1.343064l-76.218873 44.768795a5.596099 5.596099 0 0 0 0-1.343064" fill="#FF7517" p-id="3182"></path><path d="M1140.261202 795.293352l76.218873-44.768795v1.454986l-76.218873 44.768795v-1.454986" fill="#FF7517" p-id="3183"></path><path d="M1139.925436 796.748338l76.218873-44.768795v1.566908l-76.218873 44.768794v-1.454986" fill="#FF7517" p-id="3184"></path><path d="M1139.365826 798.203323l76.218873-44.768794-0.671531 1.566907-76.218874 44.768795 0.671532-1.67883M1138.694294 799.882153l76.218874-44.768795-1.007298 1.902674-76.218873 44.768795 1.007297-1.902674M1137.686997 801.784827l76.218873-44.768795a14.437936 14.437936 0 0 1-4.924568 4.812646l-76.218873 44.768794a15.557156 15.557156 0 0 0 4.924568-4.812645" fill="#FF7517" p-id="3185"></path><path d="M1142.051954 417.668568l76.218873-44.209185-1.11922 370.685621-76.218873 44.321106 1.11922-370.797542z" fill="#FF7517" p-id="3186"></path><path d="M600.125694 72.277316l76.218873-44.321106 513.721919 296.593265-76.330795 44.321107-513.609997-296.593266z" fill="#FFB845" p-id="3187"></path><path d="M1113.735691 368.75866a62.564391 62.564391 0 0 1 27.868575 48.909908l-1.11922 370.797542c0 17.907518-12.759107 25.182447-28.428184 16.116767l-52.9391-30.554703 28.316263 108.676249L961.745633 717.507571 598.78263 507.989611A62.564391 62.564391 0 0 1 570.802133 458.967781l1.11922-370.68562c0-17.907518 12.759107-25.182447 28.316263-16.228689z" fill="#FFDF5A" p-id="3188"></path><path d="M1113.735691 368.75866l76.218873-44.097263a62.116703 62.116703 0 0 1 28.316263 48.909908l-76.218873 44.768795a62.564391 62.564391 0 0 0-28.316263-49.58144z" fill="#FFDF5A" p-id="3189"></path><path d="M1113.735691 368.75866l76.218873-44.097263-76.218873 44.768795M1114.071457 369.430192l76.218873-44.768795 1.231142 0.783454-76.218873 44.768795-1.231142-0.783454" fill="#FFDF5A" p-id="3190"></path><path d="M1115.302599 369.430192l76.218873-44.768795 1.231142 0.783454-76.330795 44.768795-1.11922-0.783454M1116.421819 370.549411l76.330795-44.768794 1.231142 0.895376-76.218873 44.768794-1.343064-0.895376M1117.764883 371.444787l76.218873-44.768794 1.231142 0.895376-76.218873 44.768794-1.231142-0.895376M1119.219869 372.340163l76.218873-44.768794 1.231142 1.007297-76.218873 44.768795-1.231142-1.007298" fill="#FFDF5A" p-id="3191"></path><path d="M1120.227167 373.347461l76.218873-44.768795 1.231142 1.11922-76.218873 44.768795-1.231142-1.11922" fill="#FFDF5A" p-id="3192"></path><path d="M1121.458309 374.466681l76.218873-44.768795a12.759107 12.759107 0 0 1 1.231141 1.231142l-76.218873 44.209185-1.231141-1.11922M1122.68945 375.585901l76.218873-44.209185 1.231142 1.11922-76.218873 44.768795-1.231142-1.231142" fill="#FFDF5A" p-id="3193"></path><path d="M1123.920592 376.817043l76.218873-44.768795 1.11922 1.231142-76.218873 44.768795-1.11922-1.231142M1125.039812 378.048185l76.218873-44.768795 1.11922 1.231142-76.218873 44.768794a5.819943 5.819943 0 0 0-1.11922-1.231141M1126.159032 379.279326l76.218873-44.768794 1.11922 1.231142-76.218873 44.768794-1.11922-1.231142" fill="#FFDF5A" p-id="3194"></path><path d="M1127.278252 380.62239l76.218873-44.768794a16.452532 16.452532 0 0 1 1.11922 1.454985l-76.218873 44.209185-1.11922-1.343064M1128.397472 381.853532l76.218873-44.209185a19.13866 19.13866 0 0 1 1.231142 1.566908l-76.218873 44.768795-1.231142-1.67883" fill="#FFDF5A" p-id="3195"></path><path d="M1129.628614 383.532362l76.218873-44.768795 1.790751 2.574206-76.218873 44.768795a21.041334 21.041334 0 0 0-1.790751-2.574206M1131.419365 386.106568l76.218873-44.768795c0.783454 1.11922 1.454986 2.23844 2.126518 3.35766l-76.218873 44.768794c-0.671532-1.11922-1.343064-2.23844-2.126518-3.357659" fill="#FFDF5A" p-id="3196"></path><path d="M1133.545883 389.464227l76.218873-44.768794 1.343064 2.462283-76.218873 44.768795-1.343064-2.462284" fill="#FFDF5A" p-id="3197"></path><path d="M1134.888947 391.814589l76.218873-44.768795a12.199497 12.199497 0 0 1 0.895376 1.67883l-76.218873 44.768795a12.199497 12.199497 0 0 0-0.895376-1.67883" fill="#FFDF5A" p-id="3198"></path><path d="M1135.784323 393.605341l76.218873-44.768795c0 0.55961 0 1.007298 0.783454 1.566908l-76.218873 44.209185a6.043787 6.043787 0 0 1-0.783454-1.454986M1136.567777 395.060327l76.218873-44.209185v1.343064l-76.218873 44.768794a7.722617 7.722617 0 0 1 0-1.454985" fill="#FFDF5A" p-id="3199"></path><path d="M1137.127387 396.515312l76.218873-44.768794a6.827241 6.827241 0 0 1 0 1.343064l-76.218873 44.768794a6.827241 6.827241 0 0 0-0.55961-1.343064M1137.686997 397.858376l76.218873-44.768794a6.827241 6.827241 0 0 1 0.55961 1.343063l-76.218873 44.768795a6.827241 6.827241 0 0 0 0-1.343064" fill="#FFDF5A" p-id="3200"></path><path d="M1138.246607 399.20144l76.218873-44.768795v1.454986l-76.218873 44.768795v-1.343064M1138.806216 400.544504l76.218874-44.768795a6.267631 6.267631 0 0 1 0 1.343064l-76.218874 44.768795v-1.454986M1139.253904 401.99949l76.218873-44.768795 0.55961 1.566908-76.218873 44.209185v-1.454986" fill="#FFDF5A" p-id="3201"></path><path d="M1139.813514 403.006788l76.218873-44.209185a10.408745 10.408745 0 0 0 0 1.454986l-76.330795 44.768794v-1.566907M1140.14928 405.021383l76.330795-44.768794v1.454986l-76.218873 44.768794a7.274929 7.274929 0 0 0 0-1.454986" fill="#FFDF5A" p-id="3202"></path><path d="M1140.596968 406.476369l76.218873-44.768794v1.566907l-76.218873 44.209185v-1.454986M1140.932734 407.931355l76.218873-44.209185v1.454986l-76.218873 44.768795v-1.566908" fill="#FFDF5A" p-id="3203"></path><path d="M1141.604266 409.498263l76.218873-44.768795v1.454986l-76.218873 44.768795v-1.343064" fill="#FFDF5A" p-id="3204"></path><path d="M1141.604266 410.841327l76.218873-44.768795v1.343064l-76.218873 44.768795v-1.454986M1141.604266 412.296313l76.218873-44.768795v1.454986L1141.604266 414.198986v-1.343063" fill="#FFDF5A" p-id="3205"></path><path d="M1141.604266 414.198986l76.218873-44.768794a5.484177 5.484177 0 0 1 0 1.343063l-76.218873 44.768795a6.939163 6.939163 0 0 0 0-1.454986" fill="#FFDF5A" p-id="3206"></path><path d="M1141.604266 415.094362l76.218873-44.768794v1.343063l-76.218873 44.768795v-1.343064M1141.604266 416.437426l76.218873-44.768795v1.343064l-76.218873 44.768795v-1.343064" fill="#FFDF5A" p-id="3207"></path><path d="M1066.504613 594.169541l-0.111922 38.389242-259.770932-149.975463 0.111922-38.389241 259.770932 149.975462z" fill="#FFB845" p-id="3208"></path><path d="M1066.504613 594.169541l0.783454-0.447688-0.111922 38.389242-0.783454 0.447688 0.111922-38.389242zM806.733681 444.194079l0.783454-0.447688 259.770932 149.975462-0.783454 0.447688-259.770932-149.975462z" fill="#FFB845" p-id="3209"></path><path d="M1066.840379 477.770675l-0.111922 38.389241-410.306004-236.938846 0.111922-38.389241 410.306004 236.938846z" fill="#FFB845" p-id="3210"></path><path d="M1066.840379 477.770675l0.783454-0.447688-0.111922 38.389241-0.783454 0.447688 0.111922-38.389241z" fill="#FFB845" p-id="3211"></path><path d="M656.534375 240.831829l0.783454-0.447688 410.306004 236.938846-0.783454 0.447688-410.306004-236.938846z" fill="#FFB845" p-id="3212"></path><path d="M12.311419 46.871025L88.530292 2.661841a26.301667 26.301667 0 0 1 26.749354 2.574205l-76.218873 44.768795a26.637433 26.637433 0 0 0-26.749354-3.133816z" fill="#2789FF" p-id="3213"></path><path d="M12.311419 46.871025L88.530292 2.661841A18.57905 18.57905 0 0 1 91.552185 1.206855l-76.218873 44.768795-3.021893 1.343063" fill="#2789FF" p-id="3214"></path><path d="M15.333312 45.527962L91.552185 1.206855l2.686128-1.11922-76.218873 44.768795-2.686128 0.783454" fill="#2789FF" p-id="3215"></path><path d="M18.01944 44.85643l76.218873-44.768795a6.491475 6.491475 0 0 1 2.126518 0L20.145958 44.85643h-2.126518" fill="#2789FF" p-id="3216"></path><path d="M20.145958 44.85643l76.218873-44.768795h1.902673L22.384397 44.85643h-2.238439M22.384397 44.85643l75.883107-44.768795h1.790752L23.839383 44.85643H22.384397" fill="#2789FF" p-id="3217"></path><path d="M23.839383 44.85643l76.218873-44.768795h1.67883L25.518213 44.85643h-1.67883" fill="#2789FF" p-id="3218"></path><path d="M25.518213 44.85643l76.218873-44.768795h1.67883L27.197043 44.85643h-1.67883" fill="#2789FF" p-id="3219"></path><path d="M27.197043 44.85643l76.218873-44.768795h1.454986L28.652029 44.85643h-1.454986M28.652029 44.85643L104.870902 0.983011h1.566908l-76.218874 44.768795L28.652029 44.85643" fill="#2789FF" p-id="3220"></path><path d="M30.218936 45.639884l76.218874-44.768795 1.566907 0.55961-76.218873 44.768795H30.218936" fill="#2789FF" p-id="3221"></path><path d="M31.785844 46.199494l76.218873-44.768795h1.454986L33.576596 46.759103h-1.454986M33.576596 46.759103l76.218873-44.768794 1.566908 0.671532-76.218873 44.768794L33.576596 46.759103" fill="#2789FF" p-id="3222"></path><path d="M34.807738 47.318713L111.026611 3.109529l1.454986 0.671531-76.218873 44.768795-1.454986-0.783454" fill="#2789FF" p-id="3223"></path><path d="M36.262724 48.102167l76.218873-44.768794 1.566908 0.783453-76.218873 44.768795-1.566908-0.783454" fill="#2789FF" p-id="3224"></path><path d="M37.829632 48.885621l76.218873-44.768795 1.231141 0.671532-76.218873 44.768795-1.231141-0.671532" fill="#2789FF" p-id="3225"></path><path d="M820.16432 977.16658l-76.218873 44.768795a26.413589 26.413589 0 0 0 11.192198-24.063227l76.218874-44.209185a26.525511 26.525511 0 0 1-11.192199 23.503617z" fill="#005CE2" p-id="3226"></path><path d="M754.913801 997.312538l76.218874-44.209185v0.111922l-76.218874 44.209185v-0.111922" fill="#005CE2" p-id="3227"></path><path d="M754.913801 997.42446l76.218874-44.768795a10.296823 10.296823 0 0 1 0 1.790752l-76.218874 44.768795a11.192199 11.192199 0 0 0 0-1.902674M754.80188 999.327134l76.218873-44.768795a10.296823 10.296823 0 0 1 0 1.790752l-76.218873 44.768795a8.506071 8.506071 0 0 0 0-1.67883" fill="#005CE2" p-id="3228"></path><path d="M754.689958 1001.005964l76.218873-44.768795v1.790752l-76.218873 44.768794v-1.902673M754.578036 1002.908637l76.218873-44.768794v1.790751l-76.218873 44.768795v-1.790752" fill="#005CE2" p-id="3229"></path><path d="M754.24227 1004.699389l76.218873-44.768795v1.790752l-76.218873 44.768795v-1.790752" fill="#005CE2" p-id="3230"></path><path d="M753.906504 1006.490141l76.218873-44.768795v1.902674l-76.218873 44.768795v-1.902674" fill="#005CE2" p-id="3231"></path><path d="M753.458816 1008.392815l76.218873-44.768795-0.671532 2.014596-76.218873 44.768794 0.671532-2.014595" fill="#005CE2" p-id="3232"></path><path d="M752.787284 1010.40741l76.218873-44.768794c0 0.783454 0 1.454986-0.895376 2.126517l-76.218873 44.768795c0-0.671532 0-1.454986 0.895376-2.126518" fill="#005CE2" p-id="3233"></path><path d="M751.891908 1012.533928l76.218873-44.768795a19.13866 19.13866 0 0 1-1.454986 2.574206l-76.218873 44.768795a19.13866 19.13866 0 0 0 1.454986-2.574206" fill="#005CE2" p-id="3234"></path><path d="M750.436922 1015.108134l76.218873-44.768795a19.586348 19.586348 0 0 1-6.491475 6.379553l-76.218873 44.768795a19.250582 19.250582 0 0 0 6.491475-6.267631" fill="#005CE2" p-id="3235"></path><path d="M756.256865 506.75847l76.218873-44.209185-1.343063 490.554068-76.218874 44.209185 1.343064-490.554068z" fill="#005CE2" p-id="3236"></path><path d="M38.948851 49.557153L115.279646 5.236046l679.926071 392.510408-76.330795 44.321107L38.948851 49.557153z" fill="#2789FF" p-id="3237"></path><path d="M718.986844 442.067561a82.486504 82.486504 0 0 1 37.270021 64.690909l-1.343064 490.554068c0 23.839383-16.90022 33.576596-37.605787 21.489021L236.938846 741.458876l-167.88298 25.518213 38.165397-100.170178L37.381944 626.850761A82.374582 82.374582 0 0 1 0 561.488321L1.343064 70.934253c0-23.727461 16.90022-33.576596 37.717709-21.3771z" fill="#76C8FF" p-id="3238"></path><path d="M718.986844 442.067561l76.218873-44.768795a82.486504 82.486504 0 0 1 37.270021 64.802831l-76.218873 44.768794a82.486504 82.486504 0 0 0-37.270021-64.80283z" fill="#76C8FF" p-id="3239"></path><path d="M718.986844 442.067561l76.218873-44.768795-76.218873 44.768795M719.32261 442.291405l76.218873-44.768795 1.566908 1.007298-76.218874 44.768795-1.566907-1.007298" fill="#76C8FF" p-id="3240"></path><path d="M720.889517 443.298703l76.218874-44.768795 1.566907 1.007298-76.218873 44.768795-1.566908-1.007298" fill="#76C8FF" p-id="3241"></path><path d="M722.456425 444.306001l76.218873-44.768795 1.67883 1.231142-76.218873 44.656873-1.67883-1.11922M724.135255 445.425221l76.218873-44.209185 1.566908 1.231142-76.218873 44.768794-1.566908-1.343063" fill="#76C8FF" p-id="3242"></path><path d="M725.702163 446.768285l76.218873-44.768795 1.67883 1.343064L727.492915 447.775582l-1.67883-1.343063" fill="#76C8FF" p-id="3243"></path><path d="M727.492915 447.775582l76.218873-44.768794 1.67883 1.454986-76.218873 44.768794L727.492915 447.775582" fill="#76C8FF" p-id="3244"></path><path d="M729.059823 449.566334l76.218873-44.768795 1.678829 1.566908-76.218873 44.209185-1.678829-1.454986M730.738652 451.02132l76.218873-44.209185a20.705568 20.705568 0 0 1 1.566908 1.566908l-76.218873 44.768795a20.705568 20.705568 0 0 1-1.566908-1.566908" fill="#76C8FF" p-id="3245"></path><path d="M732.30556 452.588228l76.218873-44.768795a20.705568 20.705568 0 0 1 1.566908 1.566908l-76.218873 44.768795-1.566908-1.67883M733.872468 454.267058l76.218873-44.768795a9.625291 9.625291 0 0 0 1.454986 1.566908l-76.218873 44.768794-1.454986-1.566907" fill="#76C8FF" p-id="3246"></path><path d="M735.327454 455.833965l76.218873-44.768794 1.454986 1.790752-76.218873 44.209184-1.454986-1.678829M736.78244 457.512795l76.218873-44.209185 1.343064 1.67883L738.685113 458.967781l-1.343063-1.790752" fill="#76C8FF" p-id="3247"></path><path d="M738.685113 458.967781l76.218873-44.768795 1.67883 2.23844-76.218873 44.768795L738.685113 458.967781M739.804333 461.541987l76.218873-44.768795a30.554702 30.554702 0 0 1 2.350362 3.35766l-76.218873 44.768794a35.926958 35.926958 0 0 0-2.350362-3.357659M742.154695 464.899646l76.218873-44.768794c1.007298 1.454986 1.902674 2.909972 2.79805 4.476879l-76.218873 44.768795c-0.895376-1.566908-1.790752-3.021894-2.79805-4.47688" fill="#76C8FF" p-id="3248"></path><path d="M744.952745 469.376526l76.218873-44.768795a30.778546 30.778546 0 0 1 1.902673 3.245738l-76.218873 44.768795a30.778546 30.778546 0 0 0-1.902673-3.245738M746.855418 472.622264l76.218873-44.768795 1.11922 2.238439-76.218873 44.768795-1.11922-2.238439M747.974638 474.860703l76.218873-44.768795 1.007298 2.014596-76.218873 44.768795-1.007298-2.014596M748.981936 476.875299l76.218873-44.768795 0.783454 1.790752-76.218873 44.768795c0-0.671532 0-1.231142-0.783454-1.790752M749.877312 478.666051l76.218873-44.768795a12.423341 12.423341 0 0 1 0.783454 1.790752l-76.218873 44.768795-0.783454-1.790752" fill="#76C8FF" p-id="3249"></path><path d="M750.548844 480.456803l76.218873-44.768795a12.423341 12.423341 0 0 0 0.783454 1.790752l-76.218873 44.768794a12.423341 12.423341 0 0 1-0.783454-1.790751M751.332298 482.247554l76.218873-44.768794 0.671532 1.902673-76.218873 44.768795-0.671532-1.902674M752.00383 484.150228l76.218873-44.768795 0.671532 1.902674-76.218873 44.768795-0.671532-1.902674" fill="#76C8FF" p-id="3250"></path><path d="M752.675362 486.052902l76.218873-44.768795a12.199497 12.199497 0 0 1 0 1.902674l-76.218873 44.768795v-1.902674M753.234972 487.955576l76.218873-44.768795a13.54256 13.54256 0 0 1 0 2.014596l-76.218873 44.768794a13.54256 13.54256 0 0 0 0-2.014595M753.794582 489.970171l76.218873-44.768794a13.54256 13.54256 0 0 1 0 2.014595l-75.659263 44.656873a17.235986 17.235986 0 0 0-0.55961-1.902674M754.354192 491.872845L830.573065 447.775582a11.192199 11.192199 0 0 1 0 1.902674l-76.218873 44.768795a12.98295 12.98295 0 0 0 0-2.014596" fill="#76C8FF" p-id="3251"></path><path d="M754.80188 493.887441l76.218873-44.768795a12.98295 12.98295 0 0 1 0 2.014596l-76.218873 44.768795v-2.014596M755.249567 495.902037l76.218874-44.768795v1.902674l-76.218874 44.768795v-1.790752" fill="#76C8FF" p-id="3252"></path><path d="M755.585333 497.692789l76.218873-44.768795v1.790752l-76.218873 44.768794v-1.902673M755.809177 499.595462l76.218873-44.768794v1.902673l-76.218873 44.768795v-1.902674M756.033021 501.498136l76.218873-44.768795v1.790752l-76.218873 44.768795v-1.790752M756.144943 503.736576l76.218873-44.768795a10.296823 10.296823 0 0 1 0 1.790752l-76.218873 44.768795a9.625291 9.625291 0 0 0 0-1.790752" fill="#76C8FF" p-id="3253"></path><path d="M756.256865 505.07964l76.218873-44.768795v1.790752l-76.218873 44.768794v-1.678829" fill="#76C8FF" p-id="3254"></path><path d="M444.666054 641.624464l-0.223844 50.812582L100.617866 493.887441 100.729788 443.186781l343.936266 198.437683z" fill="#2789FF" p-id="3255"></path><path d="M444.666054 641.624464l0.783454-0.447688-0.223844 50.812582-0.783454 0.447688 0.223844-50.812582z" fill="#2789FF" p-id="3256"></path><path d="M100.729788 443.186781l0.783454-0.447688L445.449508 641.176776l-0.783454 0.447688L100.729788 443.186781z" fill="#2789FF" p-id="3257"></path><path d="M644.222956 602.56369l-0.111922 50.812582L101.065554 339.770865l0.111922-50.812582 543.04548 313.605407z" fill="#2789FF" p-id="3258"></path><path d="M644.222956 602.56369l0.783454-0.447688-0.111922 50.812582-0.783454 0.447688 0.111922-50.812582z" fill="#2789FF" p-id="3259"></path><path d="M101.177476 288.958283l0.783454-0.447688 543.04548 313.605407-0.783454 0.447688L101.177476 288.958283z" fill="#2789FF" p-id="3260"></path></svg>